<?xml version="1.0" standalone="no"?>
<!DOCTYPE svg PUBLIC "-//W3C//DTD SVG 20010904//EN"
 "http://www.w3.org/TR/2001/REC-SVG-20010904/DTD/svg10.dtd">
<svg version="1.0" xmlns="http://www.w3.org/2000/svg"
 width="274.000000pt" height="274.000000pt" viewBox="0 0 274.000000 274.000000"
 preserveAspectRatio="xMidYMid meet">
<metadata>
Created by potrace 1.11, written by Peter Selinger 2001-2013
</metadata>
<g transform="translate(0.000000,274.000000) scale(0.100000,-0.100000)"
fill="#000000" stroke="none">
<path d="M103 2354 c-8 -17 -8 -24 1 -28 6 -2 4 -5 -5 -5 -9 -1 -16 -7 -17
-13 0 -7 -3 -22 -5 -33 -7 -28 -9 -70 -8 -124 1 -40 2 -42 19 -30 14 11 13 10
-2 -9 -11 -12 -14 -22 -8 -22 7 0 11 -3 11 -7 -4 -24 3 -53 14 -65 8 -7 12
-19 9 -26 -2 -6 7 -16 20 -21 12 -6 17 -10 10 -10 -10 -1 -10 -4 0 -15 7 -8
18 -11 23 -8 6 2 5 -1 -1 -7 -6 -7 -34 -13 -63 -14 -41 -2 -50 -5 -46 -17 5
-12 4 -13 -6 -2 -26 25 -41 14 -34 -25 8 -51 27 -103 38 -103 4 0 6 -4 3 -8
-9 -16 24 -51 42 -46 14 5 14 4 3 -4 -13 -9 -13 -13 0 -28 26 -32 111 -94 120
-88 5 3 9 1 9 -4 0 -13 89 -44 102 -36 5 3 -6 -25 -25 -63 -33 -67 -33 -69
-21 -123 10 -40 10 -56 2 -59 -6 -2 -31 -22 -54 -43 -60 -56 -90 -145 -75
-220 l6 -27 89 29 c49 16 93 27 97 24 4 -2 10 -22 14 -45 6 -35 4 -43 -20 -65
-63 -58 -84 -173 -47 -258 23 -51 23 -51 83 -4 20 15 41 28 46 28 5 0 17 -39
27 -87 11 -49 21 -94 24 -101 3 -8 27 -12 71 -12 l68 0 11 -37 c33 -107 169
-170 277 -129 25 10 45 20 45 22 0 3 -20 35 -45 72 l-45 67 501 3 c276 1 504
0 506 -2 3 -3 -16 -34 -41 -70 -25 -36 -46 -68 -46 -70 0 -11 86 -36 123 -36
87 0 165 56 202 144 15 36 15 36 80 36 59 0 65 2 70 23 3 12 13 59 23 105 l18
83 56 -41 57 -41 15 23 c52 80 30 230 -43 291 -23 19 -27 29 -23 60 2 20 8 39
12 42 4 3 50 -8 101 -24 l94 -29 8 32 c12 42 -6 127 -38 174 -14 21 -45 51
-70 67 -25 16 -44 34 -41 40 2 7 7 32 11 56 5 36 2 54 -20 97 -15 30 -24 56
-21 60 6 5 20 8 64 14 6 1 12 4 12 8 0 3 -6 12 -12 20 -7 8 -3 6 9 -4 13 -11
23 -14 23 -8 0 6 10 12 23 14 14 2 21 9 19 20 -1 9 2 19 8 23 6 3 7 0 4 -9 -3
-9 -1 -16 5 -16 6 0 11 5 11 10 0 6 6 9 13 8 6 -2 11 3 9 10 -1 6 1 11 5 10
15 -5 64 46 58 60 -2 7 -1 11 4 7 10 -5 51 55 55 80 1 8 5 18 9 21 4 4 2 13
-5 21 -9 11 -8 13 2 11 8 -2 14 9 17 31 3 22 1 31 -6 26 -6 -3 -11 -2 -11 3 0
5 -13 9 -30 9 -26 0 -28 -3 -17 -16 11 -14 10 -15 -7 -1 -11 8 -31 16 -45 16
-14 1 -27 2 -28 3 -1 1 14 27 33 58 36 60 40 72 24 74 -38 5 -56 3 -62 -6 -4
-5 -6 0 -5 12 0 12 6 19 11 15 6 -3 25 -7 43 -9 25 -2 33 2 35 15 0 9 3 28 4
42 12 90 12 91 -2 86 -11 -4 -11 -2 -2 13 6 11 8 32 4 54 -6 34 -15 42 -39 38
-5 -1 -6 3 -2 9 3 6 11 8 16 5 5 -4 9 -1 9 4 0 6 -4 11 -9 11 -5 0 -11 9 -13
20 -3 18 -5 18 -28 5 -14 -8 -37 -20 -52 -27 -16 -7 -28 -16 -28 -20 0 -4 -6
-8 -14 -8 -8 0 -16 -3 -18 -7 -3 -8 -45 -32 -95 -57 -13 -6 -23 -17 -23 -25 0
-7 -6 -11 -15 -7 -8 3 -21 -1 -29 -9 -8 -8 -19 -15 -23 -15 -5 0 -20 -10 -33
-22 -14 -13 -27 -22 -30 -22 -11 3 -30 -9 -25 -16 3 -4 -3 -7 -13 -6 -12 1
-16 -5 -14 -19 2 -15 1 -17 -7 -6 -10 15 -46 7 -37 -8 3 -5 0 -8 -7 -8 -6 1
-28 -7 -47 -17 l-36 -18 -341 157 -342 157 -193 -87 c-106 -48 -220 -100 -253
-115 -33 -15 -102 -47 -153 -70 l-93 -41 -35 20 c-19 12 -33 17 -30 12 7 -11
-21 -8 -31 4 -4 4 -2 5 5 1 6 -4 12 -3 12 1 0 12 -56 44 -64 36 -3 -3 -6 -1
-6 5 0 16 -108 75 -121 66 -7 -4 -9 -3 -6 3 4 6 -45 42 -113 82 -96 58 -123
70 -138 62 -14 -7 -19 -6 -19 4 0 7 7 11 15 7 9 -3 13 -1 9 5 -14 22 -43 20
-54 -3z m2443 -53 c0 -16 -3 -17 -14 -9 -12 10 -7 19 13 28 1 0 1 -9 1 -19z
m-2410 -4 c4 -3 -3 -5 -15 -2 -11 2 -21 -1 -21 -7 0 -6 -3 -9 -6 -5 -3 3 -3
10 0 15 7 11 31 10 42 -1z m88 -4 c4 -10 1 -11 -12 -5 -9 5 -28 8 -42 6 -15
-3 -20 -1 -13 4 20 13 62 9 67 -5z m2393 -9 c-3 -3 -12 -4 -19 -1 -8 3 -5 6 6
6 11 1 17 -2 13 -5z m-2493 -16 c-5 -7 -2 -9 8 -6 8 4 15 0 15 -8 0 -7 -4 -11
-9 -8 -5 3 -16 0 -25 -8 -14 -11 -15 -11 -8 2 6 8 10 18 11 23 3 15 4 17 10
17 3 0 2 -5 -2 -12z m88 -16 c3 -11 0 -19 -7 -19 -7 0 -10 8 -7 19 2 10 6 18
7 18 1 0 5 -8 7 -18z m69 -5 c-10 -9 -11 -8 -5 6 3 10 9 15 12 12 3 -3 0 -11
-7 -18z m2166 3 c1 -11 -2 -20 -7 -20 -6 0 -7 17 -1 38 3 8 7 -1 8 -18z m100
-2 c-3 -8 -6 -5 -6 6 -1 11 2 17 5 13 3 -3 4 -12 1 -19z m113 10 c0 -4 -5 -8
-11 -8 -5 0 -8 -4 -5 -8 3 -5 -1 -9 -9 -9 -10 0 -12 4 -5 12 5 7 8 14 5 17 -3
2 2 5 10 5 8 0 15 -4 15 -9z m-130 -2 c0 -2 -8 -10 -17 -17 -16 -13 -17 -12
-4 4 13 16 21 21 21 13z m-2275 -16 c-3 -5 -12 -10 -18 -10 -7 0 -6 4 3 10 19
12 23 12 15 0z m70 -12 c5 4 5 1 1 -6 -6 -10 -11 -10 -22 -1 -8 6 -14 14 -14
16 0 3 6 0 13 -6 8 -6 18 -7 22 -3z m-39 -24 c1 -9 0 -13 -4 -10 -3 4 -7 14
-8 22 -1 9 0 13 4 10 3 -4 7 -14 8 -22z m2162 3 c8 -10 6 -13 -7 -13 -11 0
-17 6 -14 13 3 7 6 13 8 13 1 0 7 -6 13 -13z m-2278 -6 c0 -6 -4 -12 -8 -15
-5 -3 -9 1 -9 9 0 8 4 15 9 15 4 0 8 -4 8 -9z m66 -38 c-18 -17 -18 -17 -8 3
7 13 8 25 2 33 -6 6 -2 4 7 -4 16 -14 16 -16 -1 -32z m2381 41 c-3 -3 -12 -4
-19 -1 -8 3 -5 6 6 6 11 1 17 -2 13 -5z m-106 -21 c13 -16 12 -17 -3 -4 -10 7
-18 15 -18 17 0 8 8 3 21 -13z m-2141 -2 c0 -6 -4 -12 -8 -15 -5 -3 -9 1 -9 9
0 8 4 15 9 15 4 0 8 -4 8 -9z m2251 -8 c13 -16 12 -17 -3 -4 -17 13 -22 21
-14 21 2 0 10 -8 17 -17z m43 5 c-3 -4 -11 -5 -19 -1 -21 7 -19 12 4 10 11 0
18 -5 15 -9z m-295 -11 c8 -10 7 -14 -4 -14 -8 0 -11 5 -8 10 4 6 -1 8 -11 4
-10 -4 -15 -3 -11 3 8 14 20 12 34 -3z m-2164 -15 c-3 -3 -11 0 -18 7 -9 10
-8 11 6 5 10 -3 15 -9 12 -12z m149 -7 c12 -1 25 4 29 10 5 6 7 4 5 -5 -3 -9
-18 -15 -39 -15 -19 -1 -40 -4 -45 -8 -6 -3 -11 0 -11 7 0 9 7 12 16 8 14 -5
14 -4 1 14 -14 18 -14 18 4 4 11 -8 29 -15 40 -15z m-227 9 c-3 -3 -12 -4 -19
-1 -8 3 -5 6 6 6 11 1 17 -2 13 -5z m313 -9 c0 -1 -6 -7 -13 -13 -10 -8 -13
-6 -13 7 0 11 6 17 13 14 7 -3 13 -6 13 -8z m1845 6 c3 -5 2 -12 -3 -15 -5 -3
-9 1 -9 9 0 17 3 19 12 6z m242 3 c-3 -3 -12 -4 -19 -1 -8 3 -5 6 6 6 11 1 17
-2 13 -5z m-2357 -14 c0 -5 -4 -10 -10 -10 -5 0 -10 5 -10 10 0 6 5 10 10 10
6 0 10 -4 10 -10z m332 -8 c11 -15 11 -15 -3 -4 -9 7 -24 10 -33 6 -9 -3 -16
-2 -16 3 0 16 38 12 52 -5z m2143 0 c-3 -3 -11 0 -18 7 -9 10 -8 11 6 5 10 -3
15 -9 12 -12z m-2398 -8 c-3 -3 -12 -4 -19 -1 -8 3 -5 6 6 6 11 1 17 -2 13 -5z
m1992 -6 c-1 -1 3 -12 9 -24 9 -16 8 -21 -3 -21 -8 0 -11 7 -7 16 5 13 3 14
-9 4 -13 -10 -16 -10 -16 2 0 7 5 13 11 12 6 -1 10 5 8 13 -2 8 -1 12 3 8 4
-3 6 -8 4 -10z m248 -5 c-14 -14 -19 -15 -29 -4 -11 10 -10 11 3 6 10 -4 20
-2 24 4 3 6 9 11 13 11 3 0 -1 -8 -11 -17z m133 13 c0 -2 -8 -10 -17 -17 -16
-13 -17 -12 -4 4 13 16 21 21 21 13z m-175 -56 c0 -8 3 -20 7 -25 4 -6 -3 -12
-15 -12 -12 -1 -17 1 -12 5 12 8 14 47 3 58 -5 4 -8 12 -8 18 1 16 24 -26 25
-44z m126 27 c-10 -9 -11 -8 -5 6 3 10 9 15 12 12 3 -3 0 -11 -7 -18z m-2384
-2 c0 -8 -4 -12 -9 -9 -5 3 -6 10 -3 15 9 13 12 11 12 -6z m2148 5 c3 -6 -1
-7 -9 -4 -18 7 -21 14 -7 14 6 0 13 -4 16 -10z m50 1 c3 -5 2 -12 -3 -15 -5
-3 -9 1 -9 9 0 17 3 19 12 6z m160 -11 c4 -6 -1 -7 -11 -3 -10 4 -15 2 -11 -4
3 -5 0 -10 -8 -10 -11 0 -12 4 -4 14 14 15 26 17 34 3z m-2378 -16 c-3 -3 -12
-4 -19 -1 -8 3 -5 6 6 6 11 1 17 -2 13 -5z m102 -9 c21 0 36 -6 39 -15 2 -9 0
-11 -5 -5 -12 15 -47 12 -69 -5 -18 -14 -18 -14 -4 4 13 18 13 19 -1 14 -9 -4
-16 -1 -16 8 0 7 5 10 11 7 5 -4 26 -7 45 -8z m158 1 c0 -9 -6 -12 -16 -8 -14
5 -14 4 -1 -14 14 -18 14 -18 -4 -4 -22 17 -57 20 -69 5 -5 -6 -7 -4 -5 5 3 9
18 15 41 15 20 1 40 4 44 8 9 10 10 9 10 -7z m70 8 c-3 -3 -12 -4 -19 -1 -8 3
-5 6 6 6 11 1 17 -2 13 -5z m1690 -16 c-3 -8 -6 -5 -6 6 -1 11 2 17 5 13 3 -3
4 -12 1 -19z m173 7 c0 -1 -6 -7 -13 -13 -10 -8 -13 -6 -13 7 0 11 6 17 13 14
7 -3 13 -6 13 -8z m-1790 -5 c0 -5 -4 -10 -10 -10 -5 0 -10 5 -10 10 0 6 5 10
10 10 6 0 10 -4 10 -10z m1560 2 c0 -5 -7 -9 -15 -9 -8 0 -12 4 -9 9 3 4 9 8
15 8 5 0 9 -4 9 -8z m284 -1 c-8 -9 -44 -11 -44 -3 0 4 11 8 25 8 13 0 22 -2
19 -5z m-2284 -5 c0 -2 -8 -10 -17 -17 -16 -13 -17 -12 -4 4 13 16 21 21 21
13z m40 -36 c0 -4 -8 -10 -18 -12 -11 -3 -19 0 -19 7 0 8 7 11 16 7 14 -5 14
-4 1 14 -14 18 -14 18 3 5 9 -7 17 -17 17 -21z m325 20 c-4 -6 -1 -18 7 -27
12 -15 11 -15 -9 -3 -16 11 -19 17 -11 27 13 16 22 17 13 3z m40 0 c3 -6 -1
-7 -9 -4 -18 7 -21 14 -7 14 6 0 13 -4 16 -10z m119 -2 c-3 -4 -11 -5 -19 -1
-21 7 -19 12 4 10 11 0 18 -5 15 -9z m1522 0 c3 -4 -1 -5 -10 -4 -8 1 -18 5
-22 8 -3 4 1 5 10 4 8 -1 18 -5 22 -8z m111 6 c-3 -3 -12 -4 -19 -1 -8 3 -5 6
6 6 11 1 17 -2 13 -5z m-1999 -29 c-3 -3 -9 2 -12 12 -6 14 -5 15 5 6 7 -7 10
-15 7 -18z m75 10 c-3 -9 -8 -14 -10 -11 -3 3 -2 9 2 15 9 16 15 13 8 -4z
m2124 2 c0 -7 -9 -14 -20 -14 -19 -2 -19 -2 -1 12 11 8 19 15 20 15 0 0 1 -6
1 -13z m118 3 c-4 -6 -2 -17 4 -24 8 -9 7 -13 -4 -13 -8 0 -11 5 -8 10 4 6 0
8 -9 5 -8 -4 -15 0 -15 8 0 7 4 11 8 8 4 -2 10 0 14 6 3 5 8 10 11 10 3 0 2
-5 -1 -10z m-2020 -10 c-3 -5 -12 -10 -18 -10 -7 0 -6 4 3 10 19 12 23 12 15
0z m1625 0 c0 -5 -4 -10 -10 -10 -5 0 -10 5 -10 10 0 6 5 10 10 10 6 0 10 -4
10 -10z m-2004 -25 c-1 -8 -5 -17 -8 -21 -5 -4 -4 16 1 34 3 9 9 -1 7 -13z
m247 -2 c-4 -10 -9 -11 -19 -2 -18 15 -18 15 5 15 11 0 17 -5 14 -13z m32 8
c3 -5 2 -12 -3 -15 -5 -3 -9 1 -9 9 0 17 3 19 12 6z m1935 3 c0 -8 -19 -13
-24 -6 -3 5 1 9 9 9 8 0 15 -2 15 -3z m-2114 -23 c0 -16 -3 -17 -14 -9 -12 10
-7 19 13 28 1 0 1 -9 1 -19z m54 4 c0 -1 -6 -7 -13 -13 -10 -8 -13 -6 -13 7 0
11 6 17 13 14 7 -3 13 -6 13 -8z m1959 -19 c-3 -3 -11 5 -18 17 -13 21 -12 21
5 5 10 -10 16 -20 13 -22z m89 8 c1 -1 -5 -7 -15 -15 -12 -10 -15 -10 -9 -1 4
7 2 20 -6 30 -12 16 -11 16 7 2 11 -8 21 -15 23 -16z m-2158 4 c0 -6 -3 -8 -7
-5 -3 4 -13 1 -22 -6 -14 -11 -14 -10 -2 6 15 20 31 22 31 5z m144 0 c-3 -4
-9 -8 -15 -8 -5 0 -9 4 -9 8 0 5 7 9 15 9 8 0 12 -4 9 -9z m136 -3 c-5 -7 -9
-14 -7 -16 1 -2 0 -3 -2 -1 -11 7 -7 29 5 29 9 0 11 -4 4 -12z m1758 -6 c9
-12 9 -16 -1 -16 -7 0 -14 9 -14 20 -1 11 -1 18 0 16 2 -2 8 -11 15 -20z m139
-1 c-3 -8 -6 -5 -6 6 -1 11 2 17 5 13 3 -3 4 -12 1 -19z m139 -14 c3 -16 2
-26 -1 -23 -3 4 -8 19 -11 35 -3 16 -2 26 1 23 3 -4 8 -19 11 -35z m-2119 1
c0 -8 -4 -12 -9 -9 -4 3 -8 9 -8 15 0 5 4 9 8 9 5 0 9 -7 9 -15z m2049 -7 c0
-10 -1 -18 -3 -18 -1 0 -7 8 -12 18 -7 13 -6 19 2 19 7 0 13 -9 13 -19z
m-2290 -14 c1 -9 0 -13 -4 -10 -3 4 -7 14 -8 22 -1 9 0 13 4 10 3 -4 7 -14 8
-22z m2262 1 c-3 -3 -9 2 -12 12 -6 14 -5 15 5 6 7 -7 10 -15 7 -18z m-2298
-30 c0 -7 -30 -13 -34 -7 -3 4 4 9 15 9 10 1 19 0 19 -2z m2534 -11 c3 -8 2
-12 -4 -9 -6 3 -10 10 -10 16 0 14 7 11 14 -7z m-54 -10 c0 -8 -19 -13 -24 -6
-3 5 1 9 9 9 8 0 15 -2 15 -3z m-2588 -22 c3 -12 -1 -18 -12 -18 -9 0 -17 6
-17 13 0 7 4 10 9 7 4 -3 8 0 8 5 0 17 7 13 12 -7z m41 3 c-3 -9 -8 -14 -10
-11 -3 3 -2 9 2 15 9 16 15 13 8 -4z m2444 -4 c0 -11 -5 -18 -9 -15 -4 3 -5
11 -1 19 7 21 12 19 10 -4z m133 -1 c-18 -12 -30 -13 -30 -2 0 4 10 9 22 9 18
2 20 0 8 -7z m-2475 -19 c3 -5 2 -12 -3 -15 -5 -3 -9 1 -9 9 0 17 3 19 12 6z
m2400 -9 c-3 -3 -11 0 -18 7 -9 10 -8 11 6 5 10 -3 15 -9 12 -12z m-2485 -7
c0 -1 -6 -7 -13 -13 -10 -8 -13 -6 -13 7 0 11 6 17 13 14 7 -3 13 -6 13 -8z
m61 -12 c12 -16 12 -17 -2 -6 -9 7 -19 10 -22 6 -4 -3 -7 -1 -7 5 0 17 16 15
31 -5z m2389 7 c0 -5 -4 -10 -10 -10 -5 0 -10 5 -10 10 0 6 5 10 10 10 6 0 10
-4 10 -10z m-2285 -64 c0 -19 -3 -37 -6 -40 -3 -3 -5 11 -4 32 1 20 -3 44 -9
52 -9 13 -8 13 5 3 9 -7 15 -27 14 -47z m23 29 c-3 -3 -9 2 -12 12 -6 14 -5
15 5 6 7 -7 10 -15 7 -18z m2184 13 c-7 -7 -8 -17 -2 -28 6 -12 5 -17 -5 -17
-8 0 -11 7 -7 16 5 13 3 14 -9 4 -12 -10 -15 -8 -15 6 0 10 6 17 12 14 7 -2
15 0 19 6 3 6 9 11 13 11 3 0 1 -5 -6 -12z m118 8 c0 -2 -7 -7 -16 -10 -8 -3
-12 -2 -9 4 6 10 25 14 25 6z m37 -2 c-3 -3 -12 -4 -19 -1 -8 3 -5 6 6 6 11 1
17 -2 13 -5z m-2294 -17 c7 3 8 2 4 -2 -14 -16 -36 -14 -29 3 4 10 7 12 10 4
2 -7 9 -9 15 -5z m2033 -13 c1 -9 0 -13 -4 -10 -3 4 -7 14 -8 22 -1 9 0 13 4
10 3 -4 7 -14 8 -22z m221 9 c-4 -3 -1 -13 6 -22 11 -14 10 -14 -5 -2 -16 12
-16 31 -1 31 4 0 3 -3 0 -7z m-281 -18 c-1 -8 -5 -17 -8 -21 -5 -4 -4 16 1 34
3 9 9 -1 7 -13z m209 -5 c-3 -5 -12 -10 -18 -10 -7 0 -6 4 3 10 19 12 23 12
15 0z m-2388 -19 c-1 -11 -6 -17 -12 -13 -5 3 -20 7 -33 8 -12 0 -25 4 -28 7
-4 3 10 5 30 3 20 -2 36 0 36 5 0 5 2 9 4 9 3 0 4 -9 3 -19z m53 4 c0 -1 -6
-7 -13 -13 -10 -8 -13 -6 -13 7 0 11 6 17 13 14 7 -3 13 -6 13 -8z m147 1 c0
-8 -6 -12 -15 -9 -11 5 -11 7 0 14 7 5 13 9 14 9 0 0 1 -6 1 -14z m70 8 c-3
-3 -12 -4 -19 -1 -8 3 -5 6 6 6 11 1 17 -2 13 -5z m2010 -8 c0 -9 -6 -12 -16
-8 -14 5 -14 3 -2 -11 20 -25 7 -21 -15 5 -10 12 -14 19 -9 15 6 -3 17 -2 25
4 8 5 15 9 16 9 0 0 1 -6 1 -14z m-2173 -8 c-3 -4 -9 -8 -15 -8 -5 0 -9 4 -9
8 0 5 7 9 15 9 8 0 12 -4 9 -9z m2111 3 c-9 -8 -36 -10 -30 -2 2 4 11 8 20 8
8 0 13 -3 10 -6z m199 -13 c1 -7 5 -19 10 -26 4 -7 5 -16 2 -19 -3 -4 -6 -1
-6 6 0 7 -3 10 -8 7 -4 -2 -8 9 -8 25 -2 29 5 34 10 7z m42 10 c3 -4 -1 -5
-10 -4 -8 1 -18 5 -22 8 -3 4 1 5 10 4 8 -1 18 -5 22 -8z m-233 -20 c-6 -7 -9
-21 -8 -30 2 -10 -1 -18 -6 -18 -5 0 -8 8 -6 18 3 20 16 42 24 42 3 0 1 -6 -4
-12z m-2196 -30 c-3 -8 -6 -5 -6 6 -1 11 2 17 5 13 3 -3 4 -12 1 -19z m138 13
c-3 -2 -16 -6 -28 -8 -15 -2 -18 0 -9 5 14 9 45 12 37 3z m75 1 c0 -4 -10 -9
-22 -9 -18 -2 -20 0 -8 7 18 12 30 13 30 2z m2095 -1 c-3 -2 1 -11 7 -20 10
-12 7 -12 -8 2 -11 9 -24 14 -27 10 -4 -3 -7 -1 -7 5 0 6 9 10 20 9 10 -1 17
-3 15 -6z m-2274 -18 c13 -16 12 -17 -3 -4 -10 7 -18 15 -18 17 0 8 8 3 21
-13z m2234 -26 c1 -14 -2 -32 -6 -39 -4 -7 -7 3 -5 22 2 19 -2 39 -8 43 -7 6
-6 7 4 5 8 -3 15 -16 15 -31z m-2097 -2 c-3 -3 -9 2 -12 12 -6 14 -5 15 5 6 7
-7 10 -15 7 -18z m35 10 c-3 -9 -8 -14 -10 -11 -3 3 -2 9 2 15 9 16 15 13 8
-4z m-183 -1 c0 -8 -19 -13 -24 -6 -3 5 1 9 9 9 8 0 15 -2 15 -3z m2170 -19
c11 -13 10 -14 -4 -9 -9 3 -16 10 -16 15 0 13 6 11 20 -6z m-2108 -9 c9 6 9 3
-1 -9 -8 -10 -14 -16 -15 -15 -1 2 -8 12 -16 23 -14 18 -14 19 2 7 10 -8 23
-10 30 -6z m2260 -8 c-2 -10 -6 -18 -7 -18 -1 0 -5 8 -7 18 -3 11 0 19 7 19 7
0 10 -8 7 -19z m-2225 -10 c-3 -8 -6 -5 -6 6 -1 11 2 17 5 13 3 -3 4 -12 1
-19z m57 6 c3 -8 2 -12 -4 -9 -6 3 -10 10 -10 16 0 14 7 11 14 -7z m-130 -2
c3 -5 -1 -9 -9 -9 -8 0 -12 4 -9 9 3 4 7 8 9 8 2 0 6 -4 9 -8z m111 -22 c3 -6
-1 -7 -9 -4 -18 7 -21 14 -7 14 6 0 13 -4 16 -10z m-25 -22 c0 -4 -4 -8 -9 -8
-6 0 -12 4 -15 8 -3 5 1 9 9 9 8 0 15 -4 15 -9z m2094 4 c3 -5 -1 -9 -9 -9 -8
0 -12 4 -9 9 3 4 7 8 9 8 2 0 6 -4 9 -8z"/>
</g>
</svg>
